<svg xmlns="http://www.w3.org/2000/svg" id="SvgjsSvg1001" width="256" height="256" version="1.1" xmlns:xlink="http://www.w3.org/1999/xlink" xmlns:svgjs="http://svgjs.com/svgjs" generator="https://key.pics" generator-time="Sat Apr 27 2024 01:34:41 GMT+0200 (Central European Summer Time)"><defs id="SvgjsDefs1002"></defs><svg version="1.1" xmlns:xlink="http://www.w3.org/1999/xlink" x="0px" y="0px" viewBox="0 0 512 512" enable-background="new 0 0 512 512" xml:space="preserve">
<path id="classic_inner_bg" class="background" fill="#565656" d="M480,512H32c-17.6,0-32-14.4-32-32V32C0,14.4,14.4,0,32,0h448
	c17.6,0,32,14.4,32,32v448C512,497.6,497.6,512,480,512z"></path>
<path id="classic_bottom_right" class="dark_shadow" fill="#474747" d="M501.5,8.4l-48.5,38.8c2.4,2.2,3.9,5.4,3.9,8.9v376c0,6.6-5.4,12-12,12H69
	c-3.5,0-6.6-1.5-8.8-3.9L8.6,501.8C14.4,508,22.8,512,32,512h448c17.6,0,32-14.4,32-32V32C512,22.7,508,14.2,501.5,8.4z"></path>
<path id="classic_top_left" class="light_shadow" fill="#585858" d="M57,432V56c0-6.6,5.4-12,12-12h376c3.1,0,5.9,1.2,8.1,3.1l48.5-38.8
	C495.8,3.2,488.3,0,480,0H32C14.4,0,0,14.4,0,32v448c0,8.4,3.3,16,8.6,21.8l51.6-61.6C58.2,438,57,435.1,57,432z"></path>
<path id="classic_line" class="front_line" fill="none" stroke="#2b2b2b" stroke-width="3" stroke-miterlimit="10" d="M445,444H69
	c-6.6,0-12-5.4-12-12V56c0-6.6,5.4-12,12-12h376c6.6,0,12,5.4,12,12v376C457,438.6,451.6,444,445,444z"></path>
</svg>
<path fill="#A9A9A9" d="M170.03 131.84L170.03 131.84Q170.03 153.78 158.94 166.34Q147.84 178.91 128.09 178.91L128.09 178.91Q107.91 178.91 96.94 166.56Q85.97 154.22 85.97 131.72L85.97 131.72Q85.97 109.41 96.97 97.13Q107.97 84.84 128.22 84.84L128.22 84.84Q147.91 84.84 158.97 97.34Q170.03 109.84 170.03 131.84ZM97.22 131.84L97.22 131.84Q97.22 150.41 105.13 160Q113.03 169.59 128.09 169.59L128.09 169.59Q143.28 169.59 151.03 160.03Q158.78 150.47 158.78 131.84L158.78 131.84Q158.78 113.41 151.06 103.88Q143.34 94.34 128.22 94.34L128.22 94.34Q113.03 94.34 105.13 103.94Q97.22 113.53 97.22 131.84Z"></path></svg>