<svg xmlns="http://www.w3.org/2000/svg" id="SvgjsSvg1001" width="256" height="256" version="1.1" xmlns:xlink="http://www.w3.org/1999/xlink" xmlns:svgjs="http://svgjs.com/svgjs" generator="https://key.pics" generator-time="Sat Apr 27 2024 01:35:01 GMT+0200 (Central European Summer Time)"><defs id="SvgjsDefs1002"></defs><svg version="1.1" xmlns:xlink="http://www.w3.org/1999/xlink" x="0px" y="0px" viewBox="0 0 512 512" enable-background="new 0 0 512 512" xml:space="preserve">
<path id="classic_inner_bg" class="background" fill="#565656" d="M480,512H32c-17.6,0-32-14.4-32-32V32C0,14.4,14.4,0,32,0h448
	c17.6,0,32,14.4,32,32v448C512,497.6,497.6,512,480,512z"></path>
<path id="classic_bottom_right" class="dark_shadow" fill="#474747" d="M501.5,8.4l-48.5,38.8c2.4,2.2,3.9,5.4,3.9,8.9v376c0,6.6-5.4,12-12,12H69
	c-3.5,0-6.6-1.5-8.8-3.9L8.6,501.8C14.4,508,22.8,512,32,512h448c17.6,0,32-14.4,32-32V32C512,22.7,508,14.2,501.5,8.4z"></path>
<path id="classic_top_left" class="light_shadow" fill="#585858" d="M57,432V56c0-6.6,5.4-12,12-12h376c3.1,0,5.9,1.2,8.1,3.1l48.5-38.8
	C495.8,3.2,488.3,0,480,0H32C14.4,0,0,14.4,0,32v448c0,8.4,3.3,16,8.6,21.8l51.6-61.6C58.2,438,57,435.1,57,432z"></path>
<path id="classic_line" class="front_line" fill="none" stroke="#2b2b2b" stroke-width="3" stroke-miterlimit="10" d="M445,444H69
	c-6.6,0-12-5.4-12-12V56c0-6.6,5.4-12,12-12h376c6.6,0,12,5.4,12,12v376C457,438.6,451.6,444,445,444z"></path>
</svg>
<path fill="#A9A9A9" d="M157 153.34L157 153.34Q157 165.41 148.25 172.16Q139.50 178.91 124.50 178.91L124.50 178.91Q108.25 178.91 99.50 174.72L99.50 174.72L99.50 164.47Q105.13 166.84 111.75 168.22Q118.38 169.59 124.88 169.59L124.88 169.59Q135.50 169.59 140.88 165.56Q146.25 161.53 146.25 154.34L146.25 154.34Q146.25 149.59 144.34 146.56Q142.44 143.53 137.97 140.97Q133.50 138.41 124.38 135.16L124.38 135.16Q111.63 130.59 106.16 124.34Q100.69 118.09 100.69 108.03L100.69 108.03Q100.69 97.47 108.63 91.22Q116.56 84.97 129.63 84.97L129.63 84.97Q143.25 84.97 154.69 89.97L154.69 89.97L151.38 99.22Q140.06 94.47 129.38 94.47L129.38 94.47Q120.94 94.47 116.19 98.09Q111.44 101.72 111.44 108.16L111.44 108.16Q111.44 112.91 113.19 115.94Q114.94 118.97 119.09 121.50Q123.25 124.03 131.81 127.09L131.81 127.09Q146.19 132.22 151.59 138.09Q157 143.97 157 153.34Z"></path></svg>