<svg xmlns="http://www.w3.org/2000/svg" id="SvgjsSvg1001" width="256" height="256" version="1.1" xmlns:xlink="http://www.w3.org/1999/xlink" xmlns:svgjs="http://svgjs.com/svgjs" generator="https://key.pics" generator-time="Sat Apr 27 2024 01:35:25 GMT+0200 (Central European Summer Time)"><defs id="SvgjsDefs1002"></defs><svg version="1.1" xmlns:xlink="http://www.w3.org/1999/xlink" x="0px" y="0px" viewBox="0 0 512 512" enable-background="new 0 0 512 512" xml:space="preserve">
<path id="classic_inner_bg" class="background" fill="#565656" d="M480,512H32c-17.6,0-32-14.4-32-32V32C0,14.4,14.4,0,32,0h448
	c17.6,0,32,14.4,32,32v448C512,497.6,497.6,512,480,512z"></path>
<path id="classic_bottom_right" class="dark_shadow" fill="#474747" d="M501.5,8.4l-48.5,38.8c2.4,2.2,3.9,5.4,3.9,8.9v376c0,6.6-5.4,12-12,12H69
	c-3.5,0-6.6-1.5-8.8-3.9L8.6,501.8C14.4,508,22.8,512,32,512h448c17.6,0,32-14.4,32-32V32C512,22.7,508,14.2,501.5,8.4z"></path>
<path id="classic_top_left" class="light_shadow" fill="#585858" d="M57,432V56c0-6.6,5.4-12,12-12h376c3.1,0,5.9,1.2,8.1,3.1l48.5-38.8
	C495.8,3.2,488.3,0,480,0H32C14.4,0,0,14.4,0,32v448c0,8.4,3.3,16,8.6,21.8l51.6-61.6C58.2,438,57,435.1,57,432z"></path>
<path id="classic_line" class="front_line" fill="none" stroke="#2b2b2b" stroke-width="3" stroke-miterlimit="10" d="M445,444H69
	c-6.6,0-12-5.4-12-12V56c0-6.6,5.4-12,12-12h376c6.6,0,12,5.4,12,12v376C457,438.6,451.6,444,445,444z"></path>
</svg>
<path fill="#A9A9A9" d="M185.50 86.28L161.06 177.66L150.56 177.66L132.13 116.47Q130.81 112.41 129.19 106.22Q127.56 100.03 127.50 98.78L127.50 98.78Q126.13 107.03 123.13 116.84L123.13 116.84L105.25 177.66L94.75 177.66L70.44 86.28L81.69 86.28L96.13 142.72Q99.13 154.59 100.50 164.22L100.50 164.22Q102.19 152.78 105.50 141.84L105.50 141.84L121.88 86.28L133.13 86.28L150.31 142.34Q153.31 152.03 155.38 164.22L155.38 164.22Q156.56 155.34 159.88 142.59L159.88 142.59L174.25 86.28L185.50 86.28Z"></path></svg>